<?xml version="1.0" standalone="no"?><!DOCTYPE svg PUBLIC "-//W3C//DTD SVG 1.1//EN" "http://www.w3.org/Graphics/SVG/1.1/DTD/svg11.dtd"><svg width="100%" height="100%" viewBox="0 0 32 32" version="1.1" xmlns="http://www.w3.org/2000/svg" xmlns:xlink="http://www.w3.org/1999/xlink" xml:space="preserve" style="fill-rule:evenodd;clip-rule:evenodd;stroke-linejoin:round;stroke-miterlimit:1.41421;"><g id="layer1"><path d="M16,3.55271e-15c8.83656,0 16,7.16344 16,16c0,8.83656 -7.16344,16 -16,16c-8.83656,0 -16,-7.16344 -16,-16c0,-8.83656 7.16344,-16 16,-16ZM16,4c6.62742,0 12,5.37258 12,12c0,6.62742 -5.37258,12 -12,12c-6.62742,0 -12,-5.37258 -12,-12c0,-6.62742 5.37258,-12 12,-12Z" style="fill:#fff;"/><path d="M27.4286,7.80392l-3.23249,-3.23249l-19.6722,19.6722l3.23249,3.23249l19.6722,-19.6722Z" style="fill:#fff;"/></g></svg>